SplineFontDB: 3.0
FontName: Zuish-Retro
FullName: Zuish Retro
FamilyName: Zuish
Weight: Book
Copyright: Font based on Polytron's Fez.
Version: 1.0
ItalicAngle: 0
UnderlinePosition: 127
UnderlineWidth: 51
Ascent: 819
Descent: 205
sfntRevision: 0x00010000
LayerCount: 2
Layer: 0 1 "Back"  1
Layer: 1 1 "Fore"  0
XUID: [1021 62 1564396205 98979]
FSType: 4
OS2Version: 2
OS2_WeightWidthSlopeOnly: 0
OS2_UseTypoMetrics: 1
CreationTime: 1379215330
ModificationTime: 1379218220
PfmFamily: 81
TTFWeight: 400
TTFWidth: 5
LineGap: 0
VLineGap: 0
Panose: 0 0 4 0 0 0 0 0 0 0
OS2TypoAscent: 640
OS2TypoAOffset: 0
OS2TypoDescent: 0
OS2TypoDOffset: 0
OS2TypoLinegap: 0
OS2WinAscent: 640
OS2WinAOffset: 0
OS2WinDescent: 0
OS2WinDOffset: 0
HheadAscent: 640
HheadAOffset: 0
HheadDescent: 0
HheadDOffset: 0
OS2SubXSize: 512
OS2SubYSize: 512
OS2SubXOff: 0
OS2SubYOff: 0
OS2SupXSize: 512
OS2SupYSize: 512
OS2SupXOff: 0
OS2SupYOff: 512
OS2StrikeYSize: 51
OS2StrikeYPos: 204
OS2Vendor: 'FSTR'
OS2CodePages: 00000001.00000000
OS2UnicodeRanges: 80000001.00000000.00000000.00000000
MarkAttachClasses: 1
DEI: 91125
ShortTable: maxp 16
  1
  0
  102
  28
  5
  0
  0
  2
  0
  0
  0
  0
  0
  0
  0
  0
EndShort
LangName: 1033 "Copyright normanzb 2013+AAogGgDEAPoA-zuish+IBoAxAD5 is based on +IBoAxAD6-Zuish+IBoAxAD5 by +IBoAxAD6-kadoza+IBoAxAD5 (http://fontstruct.com/fontstructors/kadoza)" "" "" "" "" "Version 1.0" "" "" "" "normanzb" 
Encoding: UnicodeBmp
UnicodeInterp: none
NameList: Adobe Glyph List
DisplaySize: -96
AntiAlias: 0
FitToEm: 1
WinInfo: 110 11 4
BeginPrivate: 0
EndPrivate
BeginChars: 65539 107

StartChar: .notdef
Encoding: 65536 -1 0
Width: 0
Flags: W
LayerCount: 2
Fore
SplineSet
320 90 m 1,0,-1
 320 192 l 1,1,-1
 218 192 l 1,2,-1
 218 90 l 1,3,-1
 320 90 l 1,0,-1
421 209 m 1,4,-1
 421 311 l 1,5,-1
 218 311 l 1,6,-1
 218 209 l 1,7,-1
 421 209 l 1,4,-1
320 328 m 1,8,-1
 320 430 l 1,9,-1
 218 430 l 1,10,-1
 218 328 l 1,11,-1
 320 328 l 1,8,-1
421 447 m 1,12,-1
 421 548 l 1,13,-1
 320 548 l 2,14,15
 277 548 277 548 248 519 c 0,16,17
 218 488 218 488 218 447 c 1,18,-1
 421 447 l 1,12,-1
0 0 m 1,19,-1
 0 640 l 1,20,-1
 640 640 l 1,21,-1
 640 0 l 1,22,-1
 0 0 l 1,19,-1
EndSplineSet
Validated: 1
EndChar

StartChar: exclam
Encoding: 33 33 4
Width: 512
Flags: W
LayerCount: 2
Fore
SplineSet
256 0 m 1,0,-1
 256 128 l 1,1,-1
 384 128 l 1,2,-1
 384 0 l 1,3,-1
 256 0 l 1,0,-1
256 256 m 1,4,-1
 256 640 l 1,5,-1
 384 640 l 1,6,-1
 384 256 l 1,7,-1
 256 256 l 1,4,-1
EndSplineSet
Validated: 1
EndChar

StartChar: quotedbl
Encoding: 34 34 5
Width: 640
Flags: W
LayerCount: 2
Fore
SplineSet
128 128 m 1,0,-1
 128 384 l 1,1,-1
 256 384 l 1,2,-1
 256 128 l 1,3,-1
 128 128 l 1,0,-1
384 384 m 1,4,-1
 384 640 l 1,5,-1
 512 640 l 1,6,-1
 512 384 l 1,7,-1
 384 384 l 1,4,-1
EndSplineSet
Validated: 1
EndChar

StartChar: numbersign
Encoding: 35 35 6
Width: 768
Flags: W
LayerCount: 2
Fore
SplineSet
128 0 m 1,0,-1
 128 128 l 1,1,-1
 0 128 l 1,2,-1
 0 256 l 1,3,-1
 128 256 l 1,4,-1
 128 384 l 1,5,-1
 0 384 l 1,6,-1
 0 512 l 1,7,-1
 128 512 l 1,8,-1
 128 640 l 1,9,-1
 256 640 l 1,10,-1
 256 384 l 1,11,-1
 384 384 l 1,12,-1
 384 640 l 1,13,-1
 512 640 l 1,14,-1
 512 512 l 1,15,-1
 640 512 l 1,16,-1
 640 384 l 1,17,-1
 512 384 l 1,18,-1
 512 256 l 1,19,-1
 640 256 l 1,20,-1
 640 128 l 1,21,-1
 512 128 l 1,22,-1
 512 0 l 1,23,-1
 384 0 l 1,24,-1
 384 256 l 1,25,-1
 256 256 l 1,26,-1
 256 0 l 1,27,-1
 128 0 l 1,0,-1
EndSplineSet
Validated: 1
EndChar

StartChar: dollar
Encoding: 36 36 7
Width: 768
Flags: W
LayerCount: 2
Fore
SplineSet
256 0 m 1,0,-1
 256 128 l 1,1,-1
 384 128 l 1,2,-1
 384 256 l 1,3,-1
 640 256 l 1,4,-1
 640 0 l 1,5,-1
 256 0 l 1,0,-1
0 0 m 1,6,-1
 0 640 l 1,7,-1
 128 640 l 1,8,-1
 128 384 l 1,9,-1
 256 384 l 1,10,-1
 256 256 l 1,11,-1
 128 256 l 1,12,-1
 128 0 l 1,13,-1
 0 0 l 1,6,-1
384 384 m 1,14,-1
 384 512 l 1,15,-1
 256 512 l 1,16,-1
 256 640 l 1,17,-1
 640 640 l 1,18,-1
 640 384 l 1,19,-1
 384 384 l 1,14,-1
EndSplineSet
Validated: 1
EndChar

StartChar: percent
Encoding: 37 37 8
Width: 768
Flags: W
LayerCount: 2
Fore
SplineSet
512 0 m 1,0,-1
 512 128 l 1,1,-1
 640 128 l 1,2,-1
 640 0 l 1,3,-1
 512 0 l 1,0,-1
128 128 m 1,4,-1
 128 384 l 1,5,-1
 384 384 l 1,6,-1
 384 512 l 1,7,-1
 512 512 l 1,8,-1
 512 256 l 1,9,-1
 256 256 l 1,10,-1
 256 128 l 1,11,-1
 128 128 l 1,4,-1
0 512 m 1,12,-1
 0 640 l 1,13,-1
 128 640 l 1,14,-1
 128 512 l 1,15,-1
 0 512 l 1,12,-1
EndSplineSet
Validated: 1
EndChar

StartChar: ampersand
Encoding: 38 38 9
Width: 768
Flags: W
LayerCount: 2
Fore
SplineSet
128 0 m 1,0,-1
 128 256 l 1,1,-1
 384 256 l 1,2,-1
 384 128 l 1,3,-1
 512 128 l 1,4,-1
 512 0 l 1,5,-1
 128 0 l 1,0,-1
512 128 m 1,6,-1
 512 384 l 1,7,-1
 640 384 l 1,8,-1
 640 128 l 1,9,-1
 512 128 l 1,6,-1
EndSplineSet
Validated: 5
EndChar

StartChar: quotesingle
Encoding: 39 39 10
Width: 512
Flags: W
LayerCount: 2
Fore
SplineSet
256 384 m 1,0,-1
 256 640 l 1,1,-1
 384 640 l 1,2,-1
 384 384 l 1,3,-1
 256 384 l 1,0,-1
EndSplineSet
Validated: 1
EndChar

StartChar: parenleft
Encoding: 40 40 11
Width: 384
Flags: W
LayerCount: 2
Fore
SplineSet
128 0 m 1,0,-1
 128 128 l 1,1,-1
 256 128 l 1,2,-1
 256 0 l 1,3,-1
 128 0 l 1,0,-1
0 128 m 1,4,-1
 0 512 l 1,5,-1
 128 512 l 1,6,-1
 128 128 l 1,7,-1
 0 128 l 1,4,-1
128 512 m 1,8,-1
 128 640 l 1,9,-1
 256 640 l 1,10,-1
 256 512 l 1,11,-1
 128 512 l 1,8,-1
EndSplineSet
Validated: 5
EndChar

StartChar: parenright
Encoding: 41 41 12
Width: 384
Flags: W
LayerCount: 2
Fore
SplineSet
0 0 m 1,0,-1
 0 128 l 1,1,-1
 128 128 l 1,2,-1
 128 0 l 1,3,-1
 0 0 l 1,0,-1
128 128 m 1,4,-1
 128 512 l 1,5,-1
 256 512 l 1,6,-1
 256 128 l 1,7,-1
 128 128 l 1,4,-1
0 512 m 1,8,-1
 0 640 l 1,9,-1
 128 640 l 1,10,-1
 128 512 l 1,11,-1
 0 512 l 1,8,-1
EndSplineSet
Validated: 5
EndChar

StartChar: asterisk
Encoding: 42 42 13
Width: 640
Flags: W
LayerCount: 2
Fore
SplineSet
128 128 m 1,0,-1
 128 256 l 1,1,-1
 256 256 l 1,2,-1
 256 128 l 1,3,-1
 128 128 l 1,0,-1
384 128 m 1,4,-1
 384 256 l 1,5,-1
 512 256 l 1,6,-1
 512 128 l 1,7,-1
 384 128 l 1,4,-1
256 256 m 1,8,-1
 256 384 l 1,9,-1
 384 384 l 1,10,-1
 384 256 l 1,11,-1
 256 256 l 1,8,-1
128 384 m 1,12,-1
 128 512 l 1,13,-1
 256 512 l 1,14,-1
 256 384 l 1,15,-1
 128 384 l 1,12,-1
384 384 m 1,16,-1
 384 512 l 1,17,-1
 512 512 l 1,18,-1
 512 384 l 1,19,-1
 384 384 l 1,16,-1
EndSplineSet
Validated: 5
EndChar

StartChar: plus
Encoding: 43 43 14
Width: 640
Flags: W
LayerCount: 2
Fore
SplineSet
256 128 m 1,0,-1
 256 256 l 1,1,-1
 128 256 l 1,2,-1
 128 384 l 1,3,-1
 256 384 l 1,4,-1
 256 512 l 1,5,-1
 384 512 l 1,6,-1
 384 384 l 1,7,-1
 512 384 l 1,8,-1
 512 256 l 1,9,-1
 384 256 l 1,10,-1
 384 128 l 1,11,-1
 256 128 l 1,0,-1
EndSplineSet
Validated: 1
EndChar

StartChar: comma
Encoding: 44 44 15
Width: 512
Flags: W
LayerCount: 2
Fore
SplineSet
128 0 m 1,0,-1
 128 128 l 1,1,-1
 256 128 l 1,2,-1
 256 0 l 1,3,-1
 128 0 l 1,0,-1
256 128 m 1,4,-1
 256 256 l 1,5,-1
 384 256 l 1,6,-1
 384 128 l 1,7,-1
 256 128 l 1,4,-1
EndSplineSet
Validated: 5
EndChar

StartChar: hyphen
Encoding: 45 45 16
Width: 640
Flags: W
LayerCount: 2
Fore
SplineSet
128 256 m 1,0,-1
 128 384 l 1,1,-1
 512 384 l 1,2,-1
 512 256 l 1,3,-1
 128 256 l 1,0,-1
EndSplineSet
Validated: 1
EndChar

StartChar: period
Encoding: 46 46 17
Width: 512
Flags: W
LayerCount: 2
Fore
SplineSet
256 256 m 1,0,-1
 256 384 l 1,1,-1
 384 384 l 1,2,-1
 384 256 l 1,3,-1
 256 256 l 1,0,-1
EndSplineSet
Validated: 1
EndChar

StartChar: slash
Encoding: 47 47 18
Width: 768
Flags: W
LayerCount: 2
Fore
SplineSet
0 0 m 1,0,-1
 0 128 l 1,1,-1
 128 128 l 1,2,-1
 128 0 l 1,3,-1
 0 0 l 1,0,-1
128 128 m 1,4,-1
 128 256 l 1,5,-1
 256 256 l 1,6,-1
 256 128 l 1,7,-1
 128 128 l 1,4,-1
256 256 m 1,8,-1
 256 384 l 1,9,-1
 384 384 l 1,10,-1
 384 256 l 1,11,-1
 256 256 l 1,8,-1
384 384 m 1,12,-1
 384 512 l 1,13,-1
 512 512 l 1,14,-1
 512 384 l 1,15,-1
 384 384 l 1,12,-1
512 512 m 1,16,-1
 512 640 l 1,17,-1
 640 640 l 1,18,-1
 640 512 l 1,19,-1
 512 512 l 1,16,-1
EndSplineSet
Validated: 5
EndChar

StartChar: zero
Encoding: 48 48 19
Width: 768
Flags: W
LayerCount: 2
Fore
SplineSet
512 128 m 1,0,-1
 512 512 l 1,1,-1
 128 512 l 1,2,-1
 128 128 l 1,3,-1
 512 128 l 1,0,-1
0 0 m 1,4,-1
 0 640 l 1,5,-1
 640 640 l 1,6,-1
 640 0 l 1,7,-1
 0 0 l 1,4,-1
EndSplineSet
Validated: 1
EndChar

StartChar: one
Encoding: 49 49 20
Width: 768
Flags: W
LayerCount: 2
Fore
SplineSet
512 128 m 1,0,-1
 512 512 l 1,1,-1
 384 512 l 1,2,-1
 384 256 l 1,3,-1
 256 256 l 1,4,-1
 256 512 l 1,5,-1
 128 512 l 1,6,-1
 128 128 l 1,7,-1
 512 128 l 1,0,-1
0 0 m 1,8,-1
 0 640 l 1,9,-1
 640 640 l 1,10,-1
 640 0 l 1,11,-1
 0 0 l 1,8,-1
EndSplineSet
Validated: 1
EndChar

StartChar: two
Encoding: 50 50 21
Width: 768
Flags: W
LayerCount: 2
Fore
SplineSet
512 128 m 1,0,-1
 512 256 l 1,1,-1
 256 256 l 1,2,-1
 256 384 l 1,3,-1
 512 384 l 1,4,-1
 512 512 l 1,5,-1
 128 512 l 1,6,-1
 128 128 l 1,7,-1
 512 128 l 1,0,-1
0 0 m 1,8,-1
 0 640 l 1,9,-1
 640 640 l 1,10,-1
 640 0 l 1,11,-1
 0 0 l 1,8,-1
EndSplineSet
Validated: 1
EndChar

StartChar: three
Encoding: 51 51 22
Width: 768
Flags: W
LayerCount: 2
Fore
SplineSet
512 128 m 1,0,-1
 512 512 l 1,1,-1
 128 512 l 1,2,-1
 128 128 l 1,3,-1
 256 128 l 1,4,-1
 256 384 l 1,5,-1
 384 384 l 1,6,-1
 384 128 l 1,7,-1
 512 128 l 1,0,-1
0 0 m 1,8,-1
 0 640 l 1,9,-1
 640 640 l 1,10,-1
 640 0 l 1,11,-1
 0 0 l 1,8,-1
EndSplineSet
Validated: 1
EndChar

StartChar: four
Encoding: 52 52 23
Width: 768
Flags: W
LayerCount: 2
Fore
SplineSet
512 128 m 1,0,-1
 512 512 l 1,1,-1
 128 512 l 1,2,-1
 128 384 l 1,3,-1
 384 384 l 1,4,-1
 384 256 l 1,5,-1
 128 256 l 1,6,-1
 128 128 l 1,7,-1
 512 128 l 1,0,-1
0 0 m 1,8,-1
 0 640 l 1,9,-1
 640 640 l 1,10,-1
 640 0 l 1,11,-1
 0 0 l 1,8,-1
EndSplineSet
Validated: 1
EndChar

StartChar: five
Encoding: 53 53 24
Width: 768
Flags: W
LayerCount: 2
Fore
SplineSet
512 128 m 1,0,-1
 512 256 l 1,1,-1
 384 256 l 1,2,-1
 384 128 l 1,3,-1
 512 128 l 1,0,-1
256 128 m 1,4,-1
 256 384 l 1,5,-1
 512 384 l 1,6,-1
 512 512 l 1,7,-1
 128 512 l 1,8,-1
 128 128 l 1,9,-1
 256 128 l 1,4,-1
0 0 m 1,10,-1
 0 640 l 1,11,-1
 640 640 l 1,12,-1
 640 0 l 1,13,-1
 0 0 l 1,10,-1
EndSplineSet
Validated: 1
EndChar

StartChar: six
Encoding: 54 54 25
Width: 768
Flags: W
LayerCount: 2
Fore
SplineSet
512 128 m 1,0,-1
 512 256 l 1,1,-1
 128 256 l 1,2,-1
 128 128 l 1,3,-1
 512 128 l 1,0,-1
512 384 m 1,4,-1
 512 512 l 1,5,-1
 128 512 l 1,6,-1
 128 384 l 1,7,-1
 512 384 l 1,4,-1
0 0 m 1,8,-1
 0 640 l 1,9,-1
 640 640 l 1,10,-1
 640 0 l 1,11,-1
 0 0 l 1,8,-1
EndSplineSet
Validated: 1
EndChar

StartChar: seven
Encoding: 55 55 26
Width: 768
Flags: W
LayerCount: 2
Fore
SplineSet
256 128 m 1,0,-1
 256 256 l 1,1,-1
 128 256 l 1,2,-1
 128 128 l 1,3,-1
 256 128 l 1,0,-1
512 128 m 1,4,-1
 512 512 l 1,5,-1
 128 512 l 1,6,-1
 128 384 l 1,7,-1
 384 384 l 1,8,-1
 384 128 l 1,9,-1
 512 128 l 1,4,-1
0 0 m 1,10,-1
 0 640 l 1,11,-1
 640 640 l 1,12,-1
 640 0 l 1,13,-1
 0 0 l 1,10,-1
EndSplineSet
Validated: 1
EndChar

StartChar: eight
Encoding: 56 56 27
Width: 768
Flags: W
LayerCount: 2
Fore
SplineSet
256 128 m 1,0,-1
 256 256 l 1,1,-1
 128 256 l 1,2,-1
 128 128 l 1,3,-1
 256 128 l 1,0,-1
256 384 m 1,4,-1
 256 512 l 1,5,-1
 128 512 l 1,6,-1
 128 384 l 1,7,-1
 256 384 l 1,4,-1
512 128 m 1,8,-1
 512 512 l 1,9,-1
 384 512 l 1,10,-1
 384 128 l 1,11,-1
 512 128 l 1,8,-1
0 0 m 1,12,-1
 0 640 l 1,13,-1
 640 640 l 1,14,-1
 640 0 l 1,15,-1
 0 0 l 1,12,-1
EndSplineSet
Validated: 1
EndChar

StartChar: nine
Encoding: 57 57 28
Width: 768
Flags: W
LayerCount: 2
Fore
SplineSet
256 128 m 1,0,-1
 256 256 l 1,1,-1
 128 256 l 1,2,-1
 128 128 l 1,3,-1
 256 128 l 1,0,-1
512 128 m 1,4,-1
 512 256 l 1,5,-1
 384 256 l 1,6,-1
 384 128 l 1,7,-1
 512 128 l 1,4,-1
512 384 m 1,8,-1
 512 512 l 1,9,-1
 128 512 l 1,10,-1
 128 384 l 1,11,-1
 512 384 l 1,8,-1
0 0 m 1,12,-1
 0 640 l 1,13,-1
 640 640 l 1,14,-1
 640 0 l 1,15,-1
 0 0 l 1,12,-1
EndSplineSet
Validated: 1
EndChar

StartChar: colon
Encoding: 58 58 29
Width: 512
Flags: W
LayerCount: 2
Fore
SplineSet
256 128 m 1,0,-1
 256 256 l 1,1,-1
 384 256 l 1,2,-1
 384 128 l 1,3,-1
 256 128 l 1,0,-1
256 384 m 1,4,-1
 256 512 l 1,5,-1
 384 512 l 1,6,-1
 384 384 l 1,7,-1
 256 384 l 1,4,-1
EndSplineSet
Validated: 1
EndChar

StartChar: semicolon
Encoding: 59 59 30
Width: 512
Flags: W
LayerCount: 2
Fore
SplineSet
128 0 m 1,0,-1
 128 128 l 1,1,-1
 256 128 l 1,2,-1
 256 0 l 1,3,-1
 128 0 l 1,0,-1
256 128 m 1,4,-1
 256 256 l 1,5,-1
 384 256 l 1,6,-1
 384 128 l 1,7,-1
 256 128 l 1,4,-1
256 384 m 1,8,-1
 256 512 l 1,9,-1
 384 512 l 1,10,-1
 384 384 l 1,11,-1
 256 384 l 1,8,-1
EndSplineSet
Validated: 5
EndChar

StartChar: less
Encoding: 60 60 31
Width: 512
Flags: W
LayerCount: 2
Fore
SplineSet
256 0 m 1,0,-1
 256 128 l 1,1,-1
 384 128 l 1,2,-1
 384 0 l 1,3,-1
 256 0 l 1,0,-1
128 128 m 1,4,-1
 128 256 l 1,5,-1
 256 256 l 1,6,-1
 256 128 l 1,7,-1
 128 128 l 1,4,-1
0 256 m 1,8,-1
 0 384 l 1,9,-1
 128 384 l 1,10,-1
 128 256 l 1,11,-1
 0 256 l 1,8,-1
128 384 m 1,12,-1
 128 512 l 1,13,-1
 256 512 l 1,14,-1
 256 384 l 1,15,-1
 128 384 l 1,12,-1
256 512 m 1,16,-1
 256 640 l 1,17,-1
 384 640 l 1,18,-1
 384 512 l 1,19,-1
 256 512 l 1,16,-1
EndSplineSet
Validated: 5
EndChar

StartChar: equal
Encoding: 61 61 32
Width: 640
Flags: W
LayerCount: 2
Fore
SplineSet
128 128 m 1,0,-1
 128 256 l 1,1,-1
 512 256 l 1,2,-1
 512 128 l 1,3,-1
 128 128 l 1,0,-1
128 384 m 1,4,-1
 128 512 l 1,5,-1
 512 512 l 1,6,-1
 512 384 l 1,7,-1
 128 384 l 1,4,-1
EndSplineSet
Validated: 1
EndChar

StartChar: greater
Encoding: 62 62 33
Width: 512
Flags: W
LayerCount: 2
Fore
SplineSet
0 0 m 1,0,-1
 0 128 l 1,1,-1
 128 128 l 1,2,-1
 128 0 l 1,3,-1
 0 0 l 1,0,-1
128 128 m 1,4,-1
 128 256 l 1,5,-1
 256 256 l 1,6,-1
 256 128 l 1,7,-1
 128 128 l 1,4,-1
256 256 m 1,8,-1
 256 384 l 1,9,-1
 384 384 l 1,10,-1
 384 256 l 1,11,-1
 256 256 l 1,8,-1
128 384 m 1,12,-1
 128 512 l 1,13,-1
 256 512 l 1,14,-1
 256 384 l 1,15,-1
 128 384 l 1,12,-1
0 512 m 1,16,-1
 0 640 l 1,17,-1
 128 640 l 1,18,-1
 128 512 l 1,19,-1
 0 512 l 1,16,-1
EndSplineSet
Validated: 5
EndChar

StartChar: question
Encoding: 63 63 34
Width: 768
Flags: W
LayerCount: 2
Fore
SplineSet
0 0 m 1,0,-1
 0 128 l 1,1,-1
 128 128 l 1,2,-1
 128 0 l 1,3,-1
 0 0 l 1,0,-1
384 256 m 1,4,-1
 384 384 l 1,5,-1
 512 384 l 1,6,-1
 512 256 l 1,7,-1
 384 256 l 1,4,-1
128 384 m 1,8,-1
 128 512 l 1,9,-1
 256 512 l 1,10,-1
 256 384 l 1,11,-1
 128 384 l 1,8,-1
512 384 m 1,12,-1
 512 512 l 1,13,-1
 256 512 l 1,14,-1
 256 640 l 1,15,-1
 640 640 l 1,16,-1
 640 384 l 1,17,-1
 512 384 l 1,12,-1
EndSplineSet
Validated: 5
EndChar

StartChar: at
Encoding: 64 64 35
Width: 768
Flags: W
LayerCount: 2
Fore
SplineSet
256 256 m 1,0,-1
 256 384 l 1,1,-1
 384 384 l 1,2,-1
 384 256 l 1,3,-1
 256 256 l 1,0,-1
0 0 m 1,4,-1
 0 384 l 1,5,-1
 128 384 l 1,6,-1
 128 128 l 1,7,-1
 512 128 l 1,8,-1
 512 384 l 1,9,-1
 640 384 l 1,10,-1
 640 0 l 1,11,-1
 0 0 l 1,4,-1
0 512 m 1,12,-1
 0 640 l 1,13,-1
 128 640 l 1,14,-1
 128 512 l 1,15,-1
 0 512 l 1,12,-1
256 512 m 1,16,-1
 256 640 l 1,17,-1
 640 640 l 1,18,-1
 640 512 l 1,19,-1
 256 512 l 1,16,-1
EndSplineSet
Validated: 1
EndChar

StartChar: A
Encoding: 65 65 36
Width: 768
Flags: W
LayerCount: 2
Fore
SplineSet
0 0 m 1,0,-1
 0 384 l 1,1,-1
 128 384 l 1,2,-1
 128 256 l 1,3,-1
 512 256 l 1,4,-1
 512 384 l 1,5,-1
 640 384 l 1,6,-1
 640 0 l 1,7,-1
 0 0 l 1,0,-1
256 384 m 1,8,-1
 256 512 l 1,9,-1
 0 512 l 1,10,-1
 0 640 l 1,11,-1
 640 640 l 1,12,-1
 640 512 l 1,13,-1
 384 512 l 1,14,-1
 384 384 l 1,15,-1
 256 384 l 1,8,-1
EndSplineSet
Validated: 1
EndChar

StartChar: B
Encoding: 66 66 37
Width: 768
Flags: W
LayerCount: 2
Fore
SplineSet
256 256 m 1,0,-1
 256 384 l 1,1,-1
 384 384 l 1,2,-1
 384 256 l 1,3,-1
 256 256 l 1,0,-1
0 0 m 1,4,-1
 0 128 l 1,5,-1
 512 128 l 1,6,-1
 512 512 l 1,7,-1
 128 512 l 1,8,-1
 128 256 l 1,9,-1
 0 256 l 1,10,-1
 0 640 l 1,11,-1
 640 640 l 1,12,-1
 640 0 l 1,13,-1
 0 0 l 1,4,-1
EndSplineSet
Validated: 1
EndChar

StartChar: C
Encoding: 67 67 38
Width: 768
Flags: W
LayerCount: 2
Fore
SplineSet
512 256 m 1,0,-1
 512 384 l 1,1,-1
 640 384 l 1,2,-1
 640 256 l 1,3,-1
 512 256 l 1,0,-1
0 0 m 1,4,-1
 0 640 l 1,5,-1
 640 640 l 1,6,-1
 640 512 l 1,7,-1
 384 512 l 1,8,-1
 384 128 l 1,9,-1
 640 128 l 1,10,-1
 640 0 l 1,11,-1
 0 0 l 1,4,-1
EndSplineSet
Validated: 1
EndChar

StartChar: D
Encoding: 68 68 39
Width: 768
Flags: W
LayerCount: 2
Fore
SplineSet
0 0 m 1,0,-1
 0 128 l 1,1,-1
 128 128 l 1,2,-1
 128 0 l 1,3,-1
 0 0 l 1,0,-1
256 0 m 1,4,-1
 256 256 l 1,5,-1
 0 256 l 1,6,-1
 0 640 l 1,7,-1
 640 640 l 1,8,-1
 640 0 l 1,9,-1
 256 0 l 1,4,-1
EndSplineSet
Validated: 1
EndChar

StartChar: E
Encoding: 69 69 40
Width: 768
Flags: W
LayerCount: 2
Fore
SplineSet
0 0 m 1,0,-1
 0 384 l 1,1,-1
 128 384 l 1,2,-1
 128 128 l 1,3,-1
 640 128 l 1,4,-1
 640 0 l 1,5,-1
 0 0 l 1,0,-1
256 256 m 1,6,-1
 256 512 l 1,7,-1
 0 512 l 1,8,-1
 0 640 l 1,9,-1
 640 640 l 1,10,-1
 640 256 l 1,11,-1
 256 256 l 1,6,-1
EndSplineSet
Validated: 1
EndChar

StartChar: F
Encoding: 70 70 41
Width: 768
Flags: W
LayerCount: 2
Fore
SplineSet
0 0 m 1,0,-1
 0 256 l 1,1,-1
 128 256 l 1,2,-1
 128 128 l 1,3,-1
 256 128 l 1,4,-1
 256 256 l 1,5,-1
 384 256 l 1,6,-1
 384 128 l 1,7,-1
 512 128 l 1,8,-1
 512 512 l 1,9,-1
 384 512 l 1,10,-1
 384 384 l 1,11,-1
 256 384 l 1,12,-1
 256 512 l 1,13,-1
 128 512 l 1,14,-1
 128 384 l 1,15,-1
 0 384 l 1,16,-1
 0 640 l 1,17,-1
 640 640 l 1,18,-1
 640 0 l 1,19,-1
 0 0 l 1,0,-1
EndSplineSet
Validated: 1
EndChar

StartChar: G
Encoding: 71 71 42
Width: 768
Flags: W
LayerCount: 2
Fore
SplineSet
0 0 m 1,0,-1
 0 640 l 1,1,-1
 384 640 l 1,2,-1
 384 512 l 1,3,-1
 256 512 l 1,4,-1
 256 128 l 1,5,-1
 384 128 l 1,6,-1
 384 0 l 1,7,-1
 0 0 l 1,0,-1
512 0 m 1,8,-1
 512 256 l 1,9,-1
 384 256 l 1,10,-1
 384 384 l 1,11,-1
 512 384 l 1,12,-1
 512 640 l 1,13,-1
 640 640 l 1,14,-1
 640 0 l 1,15,-1
 512 0 l 1,8,-1
EndSplineSet
Validated: 1
EndChar

StartChar: H
Encoding: 72 72 43
Width: 768
Flags: W
LayerCount: 2
Fore
SplineSet
256 256 m 1,0,-1
 256 384 l 1,1,-1
 384 384 l 1,2,-1
 384 256 l 1,3,-1
 256 256 l 1,0,-1
0 0 m 1,4,-1
 0 640 l 1,5,-1
 640 640 l 1,6,-1
 640 0 l 1,7,-1
 512 0 l 1,8,-1
 512 512 l 1,9,-1
 128 512 l 1,10,-1
 128 128 l 1,11,-1
 384 128 l 1,12,-1
 384 0 l 1,13,-1
 0 0 l 1,4,-1
EndSplineSet
Validated: 1
EndChar

StartChar: I
Encoding: 73 73 44
Width: 768
Flags: W
LayerCount: 2
Fore
SplineSet
256 512 m 1,0,-1
 256 640 l 1,1,-1
 384 640 l 1,2,-1
 384 512 l 1,3,-1
 256 512 l 1,0,-1
0 0 m 1,4,-1
 0 640 l 1,5,-1
 128 640 l 1,6,-1
 128 384 l 1,7,-1
 512 384 l 1,8,-1
 512 640 l 1,9,-1
 640 640 l 1,10,-1
 640 0 l 1,11,-1
 0 0 l 1,4,-1
EndSplineSet
Validated: 1
EndChar

StartChar: J
Encoding: 74 74 45
Width: 768
Flags: W
LayerCount: 2
Fore
SplineSet
512 0 m 1,0,-1
 512 128 l 1,1,-1
 640 128 l 1,2,-1
 640 0 l 1,3,-1
 512 0 l 1,0,-1
0 0 m 1,4,-1
 0 640 l 1,5,-1
 640 640 l 1,6,-1
 640 256 l 1,7,-1
 384 256 l 1,8,-1
 384 0 l 1,9,-1
 0 0 l 1,4,-1
EndSplineSet
Validated: 1
EndChar

StartChar: K
Encoding: 75 75 46
Width: 768
Flags: W
LayerCount: 2
Fore
SplineSet
0 0 m 1,0,-1
 0 640 l 1,1,-1
 384 640 l 1,2,-1
 384 256 l 1,3,-1
 128 256 l 1,4,-1
 128 0 l 1,5,-1
 0 0 l 1,0,-1
256 0 m 1,6,-1
 256 128 l 1,7,-1
 512 128 l 1,8,-1
 512 640 l 1,9,-1
 640 640 l 1,10,-1
 640 0 l 1,11,-1
 256 0 l 1,6,-1
EndSplineSet
Validated: 1
EndChar

StartChar: L
Encoding: 76 76 47
Width: 768
Flags: W
LayerCount: 2
Fore
SplineSet
0 0 m 1,0,-1
 0 640 l 1,1,-1
 640 640 l 1,2,-1
 640 0 l 1,3,-1
 384 0 l 1,4,-1
 384 128 l 1,5,-1
 512 128 l 1,6,-1
 512 256 l 1,7,-1
 384 256 l 1,8,-1
 384 384 l 1,9,-1
 512 384 l 1,10,-1
 512 512 l 1,11,-1
 128 512 l 1,12,-1
 128 384 l 1,13,-1
 256 384 l 1,14,-1
 256 256 l 1,15,-1
 128 256 l 1,16,-1
 128 128 l 1,17,-1
 256 128 l 1,18,-1
 256 0 l 1,19,-1
 0 0 l 1,0,-1
EndSplineSet
Validated: 1
EndChar

StartChar: M
Encoding: 77 77 48
Width: 768
Flags: W
LayerCount: 2
Fore
SplineSet
0 0 m 1,0,-1
 0 128 l 1,1,-1
 256 128 l 1,2,-1
 256 256 l 1,3,-1
 384 256 l 1,4,-1
 384 128 l 1,5,-1
 640 128 l 1,6,-1
 640 0 l 1,7,-1
 0 0 l 1,0,-1
0 256 m 1,8,-1
 0 640 l 1,9,-1
 640 640 l 1,10,-1
 640 256 l 1,11,-1
 512 256 l 1,12,-1
 512 384 l 1,13,-1
 128 384 l 1,14,-1
 128 256 l 1,15,-1
 0 256 l 1,8,-1
EndSplineSet
Validated: 1
EndChar

StartChar: N
Encoding: 78 78 49
Width: 768
Flags: W
LayerCount: 2
Fore
SplineSet
256 256 m 1,0,-1
 256 384 l 1,1,-1
 384 384 l 1,2,-1
 384 256 l 1,3,-1
 256 256 l 1,0,-1
0 0 m 1,4,-1
 0 640 l 1,5,-1
 640 640 l 1,6,-1
 640 512 l 1,7,-1
 128 512 l 1,8,-1
 128 128 l 1,9,-1
 512 128 l 1,10,-1
 512 384 l 1,11,-1
 640 384 l 1,12,-1
 640 0 l 1,13,-1
 0 0 l 1,4,-1
EndSplineSet
Validated: 1
EndChar

StartChar: O
Encoding: 79 79 50
Width: 768
Flags: W
LayerCount: 2
Fore
SplineSet
0 256 m 1,0,-1
 0 384 l 1,1,-1
 128 384 l 1,2,-1
 128 256 l 1,3,-1
 0 256 l 1,0,-1
0 0 m 1,4,-1
 0 128 l 1,5,-1
 256 128 l 1,6,-1
 256 512 l 1,7,-1
 0 512 l 1,8,-1
 0 640 l 1,9,-1
 640 640 l 1,10,-1
 640 0 l 1,11,-1
 0 0 l 1,4,-1
EndSplineSet
Validated: 1
EndChar

StartChar: P
Encoding: 80 80 51
Width: 768
Flags: W
LayerCount: 2
Fore
SplineSet
0 0 m 1,0,-1
 0 640 l 1,1,-1
 384 640 l 1,2,-1
 384 384 l 1,3,-1
 640 384 l 1,4,-1
 640 0 l 1,5,-1
 0 0 l 1,0,-1
512 512 m 1,6,-1
 512 640 l 1,7,-1
 640 640 l 1,8,-1
 640 512 l 1,9,-1
 512 512 l 1,6,-1
EndSplineSet
Validated: 1
EndChar

StartChar: Q
Encoding: 81 81 52
Width: 768
Flags: W
LayerCount: 2
Fore
SplineSet
0 0 m 1,0,-1
 0 640 l 1,1,-1
 384 640 l 1,2,-1
 384 256 l 1,3,-1
 128 256 l 1,4,-1
 128 0 l 1,5,-1
 0 0 l 1,0,-1
256 0 m 1,6,-1
 256 128 l 1,7,-1
 512 128 l 1,8,-1
 512 640 l 1,9,-1
 640 640 l 1,10,-1
 640 0 l 1,11,-1
 256 0 l 1,6,-1
EndSplineSet
Validated: 1
EndChar

StartChar: R
Encoding: 82 82 53
Width: 768
Flags: W
LayerCount: 2
Fore
SplineSet
0 0 m 1,0,-1
 0 640 l 1,1,-1
 640 640 l 1,2,-1
 640 384 l 1,3,-1
 512 384 l 1,4,-1
 512 512 l 1,5,-1
 384 512 l 1,6,-1
 384 384 l 1,7,-1
 256 384 l 1,8,-1
 256 512 l 1,9,-1
 128 512 l 1,10,-1
 128 128 l 1,11,-1
 256 128 l 1,12,-1
 256 256 l 1,13,-1
 384 256 l 1,14,-1
 384 128 l 1,15,-1
 512 128 l 1,16,-1
 512 256 l 1,17,-1
 640 256 l 1,18,-1
 640 0 l 1,19,-1
 0 0 l 1,0,-1
EndSplineSet
Validated: 1
EndChar

StartChar: S
Encoding: 83 83 54
Width: 768
Flags: W
LayerCount: 2
Fore
SplineSet
0 0 m 1,0,-1
 0 640 l 1,1,-1
 128 640 l 1,2,-1
 128 384 l 1,3,-1
 256 384 l 1,4,-1
 256 256 l 1,5,-1
 128 256 l 1,6,-1
 128 0 l 1,7,-1
 0 0 l 1,0,-1
256 0 m 1,8,-1
 256 128 l 1,9,-1
 384 128 l 1,10,-1
 384 512 l 1,11,-1
 256 512 l 1,12,-1
 256 640 l 1,13,-1
 640 640 l 1,14,-1
 640 0 l 1,15,-1
 256 0 l 1,8,-1
EndSplineSet
Validated: 1
EndChar

StartChar: T
Encoding: 84 84 55
Width: 768
Flags: W
LayerCount: 2
Fore
SplineSet
256 256 m 1,0,-1
 256 384 l 1,1,-1
 384 384 l 1,2,-1
 384 256 l 1,3,-1
 256 256 l 1,0,-1
0 0 m 1,4,-1
 0 640 l 1,5,-1
 128 640 l 1,6,-1
 128 128 l 1,7,-1
 512 128 l 1,8,-1
 512 512 l 1,9,-1
 256 512 l 1,10,-1
 256 640 l 1,11,-1
 640 640 l 1,12,-1
 640 0 l 1,13,-1
 0 0 l 1,4,-1
EndSplineSet
Validated: 1
EndChar

StartChar: U
Encoding: 85 85 56
Width: 768
Flags: W
LayerCount: 2
Fore
SplineSet
256 0 m 1,0,-1
 256 128 l 1,1,-1
 384 128 l 1,2,-1
 384 0 l 1,3,-1
 256 0 l 1,0,-1
0 0 m 1,4,-1
 0 640 l 1,5,-1
 640 640 l 1,6,-1
 640 0 l 1,7,-1
 512 0 l 1,8,-1
 512 256 l 1,9,-1
 128 256 l 1,10,-1
 128 0 l 1,11,-1
 0 0 l 1,4,-1
EndSplineSet
Validated: 1
EndChar

StartChar: V
Encoding: 86 86 57
Width: 768
Flags: W
LayerCount: 2
Fore
SplineSet
256 0 m 1,0,-1
 256 128 l 1,1,-1
 384 128 l 1,2,-1
 384 0 l 1,3,-1
 256 0 l 1,0,-1
0 0 m 1,4,-1
 0 640 l 1,5,-1
 640 640 l 1,6,-1
 640 0 l 1,7,-1
 512 0 l 1,8,-1
 512 256 l 1,9,-1
 128 256 l 1,10,-1
 128 0 l 1,11,-1
 0 0 l 1,4,-1
EndSplineSet
Validated: 1
EndChar

StartChar: W
Encoding: 87 87 58
Width: 768
Flags: W
LayerCount: 2
Fore
SplineSet
0 512 m 1,0,-1
 0 640 l 1,1,-1
 128 640 l 1,2,-1
 128 512 l 1,3,-1
 0 512 l 1,0,-1
0 0 m 1,4,-1
 0 384 l 1,5,-1
 256 384 l 1,6,-1
 256 640 l 1,7,-1
 640 640 l 1,8,-1
 640 0 l 1,9,-1
 0 0 l 1,4,-1
EndSplineSet
Validated: 1
EndChar

StartChar: X
Encoding: 88 88 59
Width: 768
Flags: W
LayerCount: 2
Fore
SplineSet
0 0 m 1,0,-1
 0 640 l 1,1,-1
 384 640 l 1,2,-1
 384 512 l 1,3,-1
 128 512 l 1,4,-1
 128 0 l 1,5,-1
 0 0 l 1,0,-1
256 0 m 1,6,-1
 256 384 l 1,7,-1
 512 384 l 1,8,-1
 512 640 l 1,9,-1
 640 640 l 1,10,-1
 640 0 l 1,11,-1
 256 0 l 1,6,-1
EndSplineSet
Validated: 1
EndChar

StartChar: Y
Encoding: 89 89 60
Width: 768
Flags: W
LayerCount: 2
Fore
SplineSet
0 0 m 1,0,-1
 0 640 l 1,1,-1
 256 640 l 1,2,-1
 256 512 l 1,3,-1
 128 512 l 1,4,-1
 128 384 l 1,5,-1
 256 384 l 1,6,-1
 256 256 l 1,7,-1
 128 256 l 1,8,-1
 128 128 l 1,9,-1
 512 128 l 1,10,-1
 512 256 l 1,11,-1
 384 256 l 1,12,-1
 384 384 l 1,13,-1
 512 384 l 1,14,-1
 512 512 l 1,15,-1
 384 512 l 1,16,-1
 384 640 l 1,17,-1
 640 640 l 1,18,-1
 640 0 l 1,19,-1
 0 0 l 1,0,-1
EndSplineSet
Validated: 1
EndChar

StartChar: Z
Encoding: 90 90 61
Width: 768
Flags: W
LayerCount: 2
Fore
SplineSet
0 0 m 1,0,-1
 0 384 l 1,1,-1
 384 384 l 1,2,-1
 384 128 l 1,3,-1
 640 128 l 1,4,-1
 640 0 l 1,5,-1
 0 0 l 1,0,-1
512 256 m 1,6,-1
 512 512 l 1,7,-1
 0 512 l 1,8,-1
 0 640 l 1,9,-1
 640 640 l 1,10,-1
 640 256 l 1,11,-1
 512 256 l 1,6,-1
EndSplineSet
Validated: 1
EndChar

StartChar: bracketleft
Encoding: 91 91 62
Width: 384
Flags: W
LayerCount: 2
Fore
SplineSet
0 0 m 1,0,-1
 0 640 l 1,1,-1
 256 640 l 1,2,-1
 256 512 l 1,3,-1
 128 512 l 1,4,-1
 128 128 l 1,5,-1
 256 128 l 1,6,-1
 256 0 l 1,7,-1
 0 0 l 1,0,-1
EndSplineSet
Validated: 1
EndChar

StartChar: backslash
Encoding: 92 92 63
Width: 768
Flags: W
LayerCount: 2
Fore
SplineSet
512 0 m 1,0,-1
 512 128 l 1,1,-1
 640 128 l 1,2,-1
 640 0 l 1,3,-1
 512 0 l 1,0,-1
384 128 m 1,4,-1
 384 256 l 1,5,-1
 512 256 l 1,6,-1
 512 128 l 1,7,-1
 384 128 l 1,4,-1
256 256 m 1,8,-1
 256 384 l 1,9,-1
 384 384 l 1,10,-1
 384 256 l 1,11,-1
 256 256 l 1,8,-1
128 384 m 1,12,-1
 128 512 l 1,13,-1
 256 512 l 1,14,-1
 256 384 l 1,15,-1
 128 384 l 1,12,-1
0 512 m 1,16,-1
 0 640 l 1,17,-1
 128 640 l 1,18,-1
 128 512 l 1,19,-1
 0 512 l 1,16,-1
EndSplineSet
Validated: 5
EndChar

StartChar: bracketright
Encoding: 93 93 64
Width: 384
Flags: W
LayerCount: 2
Fore
SplineSet
0 0 m 1,0,-1
 0 128 l 1,1,-1
 128 128 l 1,2,-1
 128 512 l 1,3,-1
 0 512 l 1,4,-1
 0 640 l 1,5,-1
 256 640 l 1,6,-1
 256 0 l 1,7,-1
 0 0 l 1,0,-1
EndSplineSet
Validated: 1
EndChar

StartChar: asciicircum
Encoding: 94 94 65
Width: 768
Flags: W
LayerCount: 2
Fore
SplineSet
0 256 m 1,0,-1
 0 384 l 1,1,-1
 128 384 l 1,2,-1
 128 256 l 1,3,-1
 0 256 l 1,0,-1
512 256 m 1,4,-1
 512 384 l 1,5,-1
 640 384 l 1,6,-1
 640 256 l 1,7,-1
 512 256 l 1,4,-1
128 384 m 1,8,-1
 128 512 l 1,9,-1
 256 512 l 1,10,-1
 256 384 l 1,11,-1
 128 384 l 1,8,-1
384 384 m 1,12,-1
 384 512 l 1,13,-1
 512 512 l 1,14,-1
 512 384 l 1,15,-1
 384 384 l 1,12,-1
256 512 m 1,16,-1
 256 640 l 1,17,-1
 384 640 l 1,18,-1
 384 512 l 1,19,-1
 256 512 l 1,16,-1
EndSplineSet
Validated: 5
EndChar

StartChar: underscore
Encoding: 95 95 66
Width: 640
Flags: W
LayerCount: 2
Fore
SplineSet
128 0 m 1,0,-1
 128 128 l 1,1,-1
 512 128 l 1,2,-1
 512 0 l 1,3,-1
 128 0 l 1,0,-1
EndSplineSet
Validated: 1
EndChar

StartChar: grave
Encoding: 96 96 67
Width: 640
Flags: W
LayerCount: 2
Fore
SplineSet
384 384 m 1,0,-1
 384 512 l 1,1,-1
 512 512 l 1,2,-1
 512 384 l 1,3,-1
 384 384 l 1,0,-1
256 512 m 1,4,-1
 256 640 l 1,5,-1
 384 640 l 1,6,-1
 384 512 l 1,7,-1
 256 512 l 1,4,-1
EndSplineSet
Validated: 5
EndChar

StartChar: a
Encoding: 97 97 68
Width: 768
Flags: W
LayerCount: 2
Fore
SplineSet
0 0 m 1,0,-1
 0 384 l 1,1,-1
 128 384 l 1,2,-1
 128 256 l 1,3,-1
 512 256 l 1,4,-1
 512 384 l 1,5,-1
 640 384 l 1,6,-1
 640 0 l 1,7,-1
 0 0 l 1,0,-1
256 384 m 1,8,-1
 256 512 l 1,9,-1
 0 512 l 1,10,-1
 0 640 l 1,11,-1
 640 640 l 1,12,-1
 640 512 l 1,13,-1
 384 512 l 1,14,-1
 384 384 l 1,15,-1
 256 384 l 1,8,-1
EndSplineSet
Validated: 1
EndChar

StartChar: b
Encoding: 98 98 69
Width: 768
Flags: W
LayerCount: 2
Fore
SplineSet
256 256 m 1,0,-1
 256 384 l 1,1,-1
 384 384 l 1,2,-1
 384 256 l 1,3,-1
 256 256 l 1,0,-1
0 0 m 1,4,-1
 0 128 l 1,5,-1
 512 128 l 1,6,-1
 512 512 l 1,7,-1
 128 512 l 1,8,-1
 128 256 l 1,9,-1
 0 256 l 1,10,-1
 0 640 l 1,11,-1
 640 640 l 1,12,-1
 640 0 l 1,13,-1
 0 0 l 1,4,-1
EndSplineSet
Validated: 1
EndChar

StartChar: c
Encoding: 99 99 70
Width: 768
Flags: W
LayerCount: 2
Fore
SplineSet
512 256 m 1,0,-1
 512 384 l 1,1,-1
 640 384 l 1,2,-1
 640 256 l 1,3,-1
 512 256 l 1,0,-1
0 0 m 1,4,-1
 0 640 l 1,5,-1
 640 640 l 1,6,-1
 640 512 l 1,7,-1
 384 512 l 1,8,-1
 384 128 l 1,9,-1
 640 128 l 1,10,-1
 640 0 l 1,11,-1
 0 0 l 1,4,-1
EndSplineSet
Validated: 1
EndChar

StartChar: d
Encoding: 100 100 71
Width: 768
Flags: W
LayerCount: 2
Fore
SplineSet
0 0 m 1,0,-1
 0 128 l 1,1,-1
 128 128 l 1,2,-1
 128 0 l 1,3,-1
 0 0 l 1,0,-1
256 0 m 1,4,-1
 256 256 l 1,5,-1
 0 256 l 1,6,-1
 0 640 l 1,7,-1
 640 640 l 1,8,-1
 640 0 l 1,9,-1
 256 0 l 1,4,-1
EndSplineSet
Validated: 1
EndChar

StartChar: e
Encoding: 101 101 72
Width: 768
Flags: W
LayerCount: 2
Fore
SplineSet
0 0 m 1,0,-1
 0 384 l 1,1,-1
 128 384 l 1,2,-1
 128 128 l 1,3,-1
 640 128 l 1,4,-1
 640 0 l 1,5,-1
 0 0 l 1,0,-1
256 256 m 1,6,-1
 256 512 l 1,7,-1
 0 512 l 1,8,-1
 0 640 l 1,9,-1
 640 640 l 1,10,-1
 640 256 l 1,11,-1
 256 256 l 1,6,-1
EndSplineSet
Validated: 1
EndChar

StartChar: f
Encoding: 102 102 73
Width: 768
Flags: W
LayerCount: 2
Fore
SplineSet
0 0 m 1,0,-1
 0 256 l 1,1,-1
 128 256 l 1,2,-1
 128 128 l 1,3,-1
 256 128 l 1,4,-1
 256 256 l 1,5,-1
 384 256 l 1,6,-1
 384 128 l 1,7,-1
 512 128 l 1,8,-1
 512 512 l 1,9,-1
 384 512 l 1,10,-1
 384 384 l 1,11,-1
 256 384 l 1,12,-1
 256 512 l 1,13,-1
 128 512 l 1,14,-1
 128 384 l 1,15,-1
 0 384 l 1,16,-1
 0 640 l 1,17,-1
 640 640 l 1,18,-1
 640 0 l 1,19,-1
 0 0 l 1,0,-1
EndSplineSet
Validated: 1
EndChar

StartChar: g
Encoding: 103 103 74
Width: 768
Flags: W
LayerCount: 2
Fore
SplineSet
0 0 m 1,0,-1
 0 640 l 1,1,-1
 384 640 l 1,2,-1
 384 512 l 1,3,-1
 256 512 l 1,4,-1
 256 128 l 1,5,-1
 384 128 l 1,6,-1
 384 0 l 1,7,-1
 0 0 l 1,0,-1
512 0 m 1,8,-1
 512 256 l 1,9,-1
 384 256 l 1,10,-1
 384 384 l 1,11,-1
 512 384 l 1,12,-1
 512 640 l 1,13,-1
 640 640 l 1,14,-1
 640 0 l 1,15,-1
 512 0 l 1,8,-1
EndSplineSet
Validated: 1
EndChar

StartChar: h
Encoding: 104 104 75
Width: 768
Flags: W
LayerCount: 2
Fore
SplineSet
256 256 m 1,0,-1
 256 384 l 1,1,-1
 384 384 l 1,2,-1
 384 256 l 1,3,-1
 256 256 l 1,0,-1
0 0 m 1,4,-1
 0 640 l 1,5,-1
 640 640 l 1,6,-1
 640 0 l 1,7,-1
 512 0 l 1,8,-1
 512 512 l 1,9,-1
 128 512 l 1,10,-1
 128 128 l 1,11,-1
 384 128 l 1,12,-1
 384 0 l 1,13,-1
 0 0 l 1,4,-1
EndSplineSet
Validated: 1
EndChar

StartChar: i
Encoding: 105 105 76
Width: 768
Flags: W
LayerCount: 2
Fore
SplineSet
256 512 m 1,0,-1
 256 640 l 1,1,-1
 384 640 l 1,2,-1
 384 512 l 1,3,-1
 256 512 l 1,0,-1
0 0 m 1,4,-1
 0 640 l 1,5,-1
 128 640 l 1,6,-1
 128 384 l 1,7,-1
 512 384 l 1,8,-1
 512 640 l 1,9,-1
 640 640 l 1,10,-1
 640 0 l 1,11,-1
 0 0 l 1,4,-1
EndSplineSet
Validated: 1
EndChar

StartChar: j
Encoding: 106 106 77
Width: 768
Flags: W
LayerCount: 2
Fore
SplineSet
512 0 m 1,0,-1
 512 128 l 1,1,-1
 640 128 l 1,2,-1
 640 0 l 1,3,-1
 512 0 l 1,0,-1
0 0 m 1,4,-1
 0 640 l 1,5,-1
 640 640 l 1,6,-1
 640 256 l 1,7,-1
 384 256 l 1,8,-1
 384 0 l 1,9,-1
 0 0 l 1,4,-1
EndSplineSet
Validated: 1
EndChar

StartChar: k
Encoding: 107 107 78
Width: 768
Flags: W
LayerCount: 2
Fore
SplineSet
0 0 m 1,0,-1
 0 640 l 1,1,-1
 384 640 l 1,2,-1
 384 256 l 1,3,-1
 128 256 l 1,4,-1
 128 0 l 1,5,-1
 0 0 l 1,0,-1
256 0 m 1,6,-1
 256 128 l 1,7,-1
 512 128 l 1,8,-1
 512 640 l 1,9,-1
 640 640 l 1,10,-1
 640 0 l 1,11,-1
 256 0 l 1,6,-1
EndSplineSet
Validated: 1
EndChar

StartChar: l
Encoding: 108 108 79
Width: 768
Flags: W
LayerCount: 2
Fore
SplineSet
0 0 m 1,0,-1
 0 640 l 1,1,-1
 640 640 l 1,2,-1
 640 0 l 1,3,-1
 384 0 l 1,4,-1
 384 128 l 1,5,-1
 512 128 l 1,6,-1
 512 256 l 1,7,-1
 384 256 l 1,8,-1
 384 384 l 1,9,-1
 512 384 l 1,10,-1
 512 512 l 1,11,-1
 128 512 l 1,12,-1
 128 384 l 1,13,-1
 256 384 l 1,14,-1
 256 256 l 1,15,-1
 128 256 l 1,16,-1
 128 128 l 1,17,-1
 256 128 l 1,18,-1
 256 0 l 1,19,-1
 0 0 l 1,0,-1
EndSplineSet
Validated: 1
EndChar

StartChar: m
Encoding: 109 109 80
Width: 768
Flags: W
LayerCount: 2
Fore
SplineSet
0 0 m 1,0,-1
 0 128 l 1,1,-1
 256 128 l 1,2,-1
 256 256 l 1,3,-1
 384 256 l 1,4,-1
 384 128 l 1,5,-1
 640 128 l 1,6,-1
 640 0 l 1,7,-1
 0 0 l 1,0,-1
0 256 m 1,8,-1
 0 640 l 1,9,-1
 640 640 l 1,10,-1
 640 256 l 1,11,-1
 512 256 l 1,12,-1
 512 384 l 1,13,-1
 128 384 l 1,14,-1
 128 256 l 1,15,-1
 0 256 l 1,8,-1
EndSplineSet
Validated: 1
EndChar

StartChar: n
Encoding: 110 110 81
Width: 768
Flags: W
LayerCount: 2
Fore
SplineSet
256 256 m 1,0,-1
 256 384 l 1,1,-1
 384 384 l 1,2,-1
 384 256 l 1,3,-1
 256 256 l 1,0,-1
0 0 m 1,4,-1
 0 640 l 1,5,-1
 640 640 l 1,6,-1
 640 512 l 1,7,-1
 128 512 l 1,8,-1
 128 128 l 1,9,-1
 512 128 l 1,10,-1
 512 384 l 1,11,-1
 640 384 l 1,12,-1
 640 0 l 1,13,-1
 0 0 l 1,4,-1
EndSplineSet
Validated: 1
EndChar

StartChar: o
Encoding: 111 111 82
Width: 768
Flags: W
LayerCount: 2
Fore
SplineSet
0 256 m 1,0,-1
 0 384 l 1,1,-1
 128 384 l 1,2,-1
 128 256 l 1,3,-1
 0 256 l 1,0,-1
0 0 m 1,4,-1
 0 128 l 1,5,-1
 256 128 l 1,6,-1
 256 512 l 1,7,-1
 0 512 l 1,8,-1
 0 640 l 1,9,-1
 640 640 l 1,10,-1
 640 0 l 1,11,-1
 0 0 l 1,4,-1
EndSplineSet
Validated: 1
EndChar

StartChar: p
Encoding: 112 112 83
Width: 768
Flags: W
LayerCount: 2
Fore
SplineSet
0 0 m 1,0,-1
 0 640 l 1,1,-1
 384 640 l 1,2,-1
 384 384 l 1,3,-1
 640 384 l 1,4,-1
 640 0 l 1,5,-1
 0 0 l 1,0,-1
512 512 m 1,6,-1
 512 640 l 1,7,-1
 640 640 l 1,8,-1
 640 512 l 1,9,-1
 512 512 l 1,6,-1
EndSplineSet
Validated: 1
EndChar

StartChar: q
Encoding: 113 113 84
Width: 768
Flags: W
LayerCount: 2
Fore
SplineSet
0 0 m 1,0,-1
 0 640 l 1,1,-1
 384 640 l 1,2,-1
 384 256 l 1,3,-1
 128 256 l 1,4,-1
 128 0 l 1,5,-1
 0 0 l 1,0,-1
256 0 m 1,6,-1
 256 128 l 1,7,-1
 512 128 l 1,8,-1
 512 640 l 1,9,-1
 640 640 l 1,10,-1
 640 0 l 1,11,-1
 256 0 l 1,6,-1
EndSplineSet
Validated: 1
EndChar

StartChar: r
Encoding: 114 114 85
Width: 768
Flags: W
LayerCount: 2
Fore
SplineSet
0 0 m 1,0,-1
 0 640 l 1,1,-1
 640 640 l 1,2,-1
 640 384 l 1,3,-1
 512 384 l 1,4,-1
 512 512 l 1,5,-1
 384 512 l 1,6,-1
 384 384 l 1,7,-1
 256 384 l 1,8,-1
 256 512 l 1,9,-1
 128 512 l 1,10,-1
 128 128 l 1,11,-1
 256 128 l 1,12,-1
 256 256 l 1,13,-1
 384 256 l 1,14,-1
 384 128 l 1,15,-1
 512 128 l 1,16,-1
 512 256 l 1,17,-1
 640 256 l 1,18,-1
 640 0 l 1,19,-1
 0 0 l 1,0,-1
EndSplineSet
Validated: 1
EndChar

StartChar: s
Encoding: 115 115 86
Width: 768
Flags: W
LayerCount: 2
Fore
SplineSet
0 0 m 1,0,-1
 0 640 l 1,1,-1
 128 640 l 1,2,-1
 128 384 l 1,3,-1
 256 384 l 1,4,-1
 256 256 l 1,5,-1
 128 256 l 1,6,-1
 128 0 l 1,7,-1
 0 0 l 1,0,-1
256 0 m 1,8,-1
 256 128 l 1,9,-1
 384 128 l 1,10,-1
 384 512 l 1,11,-1
 256 512 l 1,12,-1
 256 640 l 1,13,-1
 640 640 l 1,14,-1
 640 0 l 1,15,-1
 256 0 l 1,8,-1
EndSplineSet
Validated: 1
EndChar

StartChar: t
Encoding: 116 116 87
Width: 768
Flags: W
LayerCount: 2
Fore
SplineSet
256 256 m 1,0,-1
 256 384 l 1,1,-1
 384 384 l 1,2,-1
 384 256 l 1,3,-1
 256 256 l 1,0,-1
0 0 m 1,4,-1
 0 640 l 1,5,-1
 128 640 l 1,6,-1
 128 128 l 1,7,-1
 512 128 l 1,8,-1
 512 512 l 1,9,-1
 256 512 l 1,10,-1
 256 640 l 1,11,-1
 640 640 l 1,12,-1
 640 0 l 1,13,-1
 0 0 l 1,4,-1
EndSplineSet
Validated: 1
EndChar

StartChar: u
Encoding: 117 117 88
Width: 768
Flags: W
LayerCount: 2
Fore
SplineSet
256 0 m 1,0,-1
 256 128 l 1,1,-1
 384 128 l 1,2,-1
 384 0 l 1,3,-1
 256 0 l 1,0,-1
0 0 m 1,4,-1
 0 640 l 1,5,-1
 640 640 l 1,6,-1
 640 0 l 1,7,-1
 512 0 l 1,8,-1
 512 256 l 1,9,-1
 128 256 l 1,10,-1
 128 0 l 1,11,-1
 0 0 l 1,4,-1
EndSplineSet
Validated: 1
EndChar

StartChar: v
Encoding: 118 118 89
Width: 768
Flags: W
LayerCount: 2
Fore
SplineSet
256 0 m 1,0,-1
 256 128 l 1,1,-1
 384 128 l 1,2,-1
 384 0 l 1,3,-1
 256 0 l 1,0,-1
0 0 m 1,4,-1
 0 640 l 1,5,-1
 640 640 l 1,6,-1
 640 0 l 1,7,-1
 512 0 l 1,8,-1
 512 256 l 1,9,-1
 128 256 l 1,10,-1
 128 0 l 1,11,-1
 0 0 l 1,4,-1
EndSplineSet
Validated: 1
EndChar

StartChar: w
Encoding: 119 119 90
Width: 768
Flags: W
LayerCount: 2
Fore
SplineSet
0 512 m 1,0,-1
 0 640 l 1,1,-1
 128 640 l 1,2,-1
 128 512 l 1,3,-1
 0 512 l 1,0,-1
0 0 m 1,4,-1
 0 384 l 1,5,-1
 256 384 l 1,6,-1
 256 640 l 1,7,-1
 640 640 l 1,8,-1
 640 0 l 1,9,-1
 0 0 l 1,4,-1
EndSplineSet
Validated: 1
EndChar

StartChar: x
Encoding: 120 120 91
Width: 768
Flags: W
LayerCount: 2
Fore
SplineSet
0 0 m 1,0,-1
 0 640 l 1,1,-1
 384 640 l 1,2,-1
 384 512 l 1,3,-1
 128 512 l 1,4,-1
 128 0 l 1,5,-1
 0 0 l 1,0,-1
256 0 m 1,6,-1
 256 384 l 1,7,-1
 512 384 l 1,8,-1
 512 640 l 1,9,-1
 640 640 l 1,10,-1
 640 0 l 1,11,-1
 256 0 l 1,6,-1
EndSplineSet
Validated: 1
EndChar

StartChar: y
Encoding: 121 121 92
Width: 768
Flags: W
LayerCount: 2
Fore
SplineSet
0 0 m 1,0,-1
 0 640 l 1,1,-1
 256 640 l 1,2,-1
 256 512 l 1,3,-1
 128 512 l 1,4,-1
 128 384 l 1,5,-1
 256 384 l 1,6,-1
 256 256 l 1,7,-1
 128 256 l 1,8,-1
 128 128 l 1,9,-1
 512 128 l 1,10,-1
 512 256 l 1,11,-1
 384 256 l 1,12,-1
 384 384 l 1,13,-1
 512 384 l 1,14,-1
 512 512 l 1,15,-1
 384 512 l 1,16,-1
 384 640 l 1,17,-1
 640 640 l 1,18,-1
 640 0 l 1,19,-1
 0 0 l 1,0,-1
EndSplineSet
Validated: 1
EndChar

StartChar: z
Encoding: 122 122 93
Width: 768
Flags: W
LayerCount: 2
Fore
SplineSet
0 0 m 1,0,-1
 0 384 l 1,1,-1
 384 384 l 1,2,-1
 384 128 l 1,3,-1
 640 128 l 1,4,-1
 640 0 l 1,5,-1
 0 0 l 1,0,-1
512 256 m 1,6,-1
 512 512 l 1,7,-1
 0 512 l 1,8,-1
 0 640 l 1,9,-1
 640 640 l 1,10,-1
 640 256 l 1,11,-1
 512 256 l 1,6,-1
EndSplineSet
Validated: 1
EndChar

StartChar: braceleft
Encoding: 123 123 94
Width: 512
Flags: W
LayerCount: 2
Fore
SplineSet
128 0 m 1,0,-1
 128 256 l 1,1,-1
 256 256 l 1,2,-1
 256 128 l 1,3,-1
 384 128 l 1,4,-1
 384 0 l 1,5,-1
 128 0 l 1,0,-1
0 256 m 1,6,-1
 0 384 l 1,7,-1
 128 384 l 1,8,-1
 128 256 l 1,9,-1
 0 256 l 1,6,-1
128 384 m 1,10,-1
 128 640 l 1,11,-1
 384 640 l 1,12,-1
 384 512 l 1,13,-1
 256 512 l 1,14,-1
 256 384 l 1,15,-1
 128 384 l 1,10,-1
EndSplineSet
Validated: 5
EndChar

StartChar: bar
Encoding: 124 124 95
Width: 512
Flags: W
LayerCount: 2
Fore
SplineSet
256 0 m 1,0,-1
 256 640 l 1,1,-1
 384 640 l 1,2,-1
 384 0 l 1,3,-1
 256 0 l 1,0,-1
EndSplineSet
Validated: 1
EndChar

StartChar: braceright
Encoding: 125 125 96
Width: 512
Flags: W
LayerCount: 2
Fore
SplineSet
0 0 m 1,0,-1
 0 128 l 1,1,-1
 128 128 l 1,2,-1
 128 256 l 1,3,-1
 256 256 l 1,4,-1
 256 0 l 1,5,-1
 0 0 l 1,0,-1
256 256 m 1,6,-1
 256 384 l 1,7,-1
 384 384 l 1,8,-1
 384 256 l 1,9,-1
 256 256 l 1,6,-1
128 384 m 1,10,-1
 128 512 l 1,11,-1
 0 512 l 1,12,-1
 0 640 l 1,13,-1
 256 640 l 1,14,-1
 256 384 l 1,15,-1
 128 384 l 1,10,-1
EndSplineSet
Validated: 5
EndChar

StartChar: asciitilde
Encoding: 126 126 97
Width: 768
Flags: W
LayerCount: 2
Fore
SplineSet
0 128 m 1,0,-1
 0 256 l 1,1,-1
 128 256 l 1,2,-1
 128 128 l 1,3,-1
 0 128 l 1,0,-1
128 256 m 1,4,-1
 128 384 l 1,5,-1
 512 384 l 1,6,-1
 512 256 l 1,7,-1
 128 256 l 1,4,-1
512 384 m 1,8,-1
 512 512 l 1,9,-1
 640 512 l 1,10,-1
 640 384 l 1,11,-1
 512 384 l 1,8,-1
EndSplineSet
Validated: 5
EndChar

StartChar: quoteleft
Encoding: 8216 8216 98
Width: 256
Flags: W
LayerCount: 2
Fore
SplineSet
0 384 m 1,0,-1
 0 640 l 1,1,-1
 128 640 l 1,2,-1
 128 384 l 1,3,-1
 0 384 l 1,0,-1
EndSplineSet
Validated: 1
EndChar

StartChar: quoteright
Encoding: 8217 8217 99
Width: 256
Flags: W
LayerCount: 2
Fore
SplineSet
0 384 m 1,0,-1
 0 640 l 1,1,-1
 128 640 l 1,2,-1
 128 384 l 1,3,-1
 0 384 l 1,0,-1
EndSplineSet
Validated: 1
EndChar

StartChar: quotedblleft
Encoding: 8220 8220 100
Width: 640
Flags: W
LayerCount: 2
Fore
SplineSet
384 384 m 1,0,-1
 384 512 l 1,1,-1
 512 512 l 1,2,-1
 512 384 l 1,3,-1
 384 384 l 1,0,-1
0 384 m 1,4,-1
 0 640 l 1,5,-1
 128 640 l 1,6,-1
 128 384 l 1,7,-1
 0 384 l 1,4,-1
256 512 m 1,8,-1
 256 640 l 1,9,-1
 384 640 l 1,10,-1
 384 512 l 1,11,-1
 256 512 l 1,8,-1
EndSplineSet
Validated: 5
EndChar

StartChar: quotedblright
Encoding: 8221 8221 101
Width: 640
Flags: W
LayerCount: 2
Fore
SplineSet
0 384 m 1,0,-1
 0 512 l 1,1,-1
 128 512 l 1,2,-1
 128 384 l 1,3,-1
 0 384 l 1,0,-1
128 512 m 1,4,-1
 128 640 l 1,5,-1
 256 640 l 1,6,-1
 256 512 l 1,7,-1
 128 512 l 1,4,-1
384 384 m 1,8,-1
 384 640 l 1,9,-1
 512 640 l 1,10,-1
 512 384 l 1,11,-1
 384 384 l 1,8,-1
EndSplineSet
Validated: 5
EndChar

StartChar: uni24EA
Encoding: 9450 9450 102
Width: 768
Flags: W
LayerCount: 2
Fore
SplineSet
512 128 m 1,0,-1
 512 512 l 1,1,-1
 128 512 l 1,2,-1
 128 128 l 1,3,-1
 512 128 l 1,0,-1
0 0 m 1,4,-1
 0 640 l 1,5,-1
 640 640 l 1,6,-1
 640 0 l 1,7,-1
 0 0 l 1,4,-1
EndSplineSet
Validated: 1
EndChar

StartChar: uni20E3
Encoding: 8419 8419 103
Width: 768
Flags: W
LayerCount: 2
Fore
SplineSet
576 256 m 29,0,-1
 576 386 l 25,1,-1
 641 386 l 25,2,-1
 641 256 l 25,3,-1
 576 256 l 29,0,-1
2 384 m 17,4,-1
 384 384 l 1,5,-1
 384 256 l 1,6,-1
 2 256 l 9,7,-1
 2 384 l 17,4,-1
EndSplineSet
Validated: 1
EndChar

StartChar: uni20E2
Encoding: 8418 8418 104
Width: 768
Flags: W
LayerCount: 2
Fore
SplineSet
385.5 576.5 m 25,0,-1
 256.5 575.5 l 25,1,-1
 256.5 640.5 l 25,2,-1
 386.5 640.5 l 25,3,-1
 385.5 576.5 l 25,0,-1
258.5 1.5 m 17,4,-1
 258.5 383.5 l 1,5,-1
 386.5 383.5 l 1,6,-1
 386.5 1.5 l 9,7,-1
 258.5 1.5 l 17,4,-1
EndSplineSet
Validated: 524289
EndChar

StartChar: uni20DD
Encoding: 8413 8413 105
Width: 768
Flags: WO
LayerCount: 2
Fore
SplineSet
257.5 65.5 m 25,0,-1
 386.5 66.5 l 25,1,-1
 386.5 1.5 l 25,2,-1
 256.5 1.5 l 25,3,-1
 257.5 65.5 l 25,0,-1
384.5 640.5 m 17,4,-1
 384.5 258.5 l 1,5,-1
 256.5 258.5 l 1,6,-1
 256.5 640.5 l 9,7,-1
 384.5 640.5 l 17,4,-1
EndSplineSet
Validated: 524289
EndChar

StartChar: uni20DE
Encoding: 8414 8414 106
Width: 768
Flags: W
LayerCount: 2
Fore
SplineSet
67 386 m 29,0,-1
 67 256 l 25,1,-1
 2 256 l 25,2,-1
 2 386 l 25,3,-1
 67 386 l 29,0,-1
641 258 m 17,4,-1
 259 258 l 1,5,-1
 259 386 l 1,6,-1
 641 386 l 9,7,-1
 641 258 l 17,4,-1
EndSplineSet
Validated: 1
EndChar
